<?xml version="1.0" encoding="UTF-8" standalone="no"?>
<svg
   xmlns:dc="http://purl.org/dc/elements/1.1/"
   xmlns:cc="http://creativecommons.org/ns#"
   xmlns:rdf="http://www.w3.org/1999/02/22-rdf-syntax-ns#"
   xmlns:svg="http://www.w3.org/2000/svg"
   xmlns="http://www.w3.org/2000/svg"
   xmlns:sodipodi="http://sodipodi.sourceforge.net/DTD/sodipodi-0.dtd"
   xmlns:inkscape="http://www.inkscape.org/namespaces/inkscape"
   version="1.2"
   width="207.20999mm"
   height="207.20999mm"
   viewBox="0 0 20720.999 20720.999"
   preserveAspectRatio="xMidYMid"
   xml:space="preserve"
   id="svg4269"
   inkscape:version="0.91 r13725"
   sodipodi:docname="audiocombojack.svg"
   style="fill-rule:evenodd;stroke-width:28.22200012;stroke-linejoin:round"><metadata
     id="metadata4346"><rdf:RDF><cc:Work
         rdf:about=""><dc:format>image/svg+xml</dc:format><dc:type
           rdf:resource="http://purl.org/dc/dcmitype/StillImage" /><dc:title></dc:title></cc:Work></rdf:RDF></metadata><sodipodi:namedview
     pagecolor="#ffffff"
     bordercolor="#666666"
     borderopacity="1"
     objecttolerance="10"
     gridtolerance="10"
     guidetolerance="10"
     inkscape:pageopacity="0"
     inkscape:pageshadow="2"
     inkscape:window-width="1920"
     inkscape:window-height="1019"
     id="namedview4344"
     showgrid="false"
     fit-margin-top="0"
     fit-margin-left="0"
     fit-margin-right="0"
     fit-margin-bottom="0"
     inkscape:zoom="0.79630378"
     inkscape:cx="367.05118"
     inkscape:cy="363.71984"
     inkscape:window-x="0"
     inkscape:window-y="0"
     inkscape:window-maximized="1"
     inkscape:current-layer="svg4269" /><defs
     class="ClipPathGroup"
     id="defs4271"><clipPath
       id="presentation_clip_path"
       clipPathUnits="userSpaceOnUse"><rect
         x="0"
         y="0"
         width="21000"
         height="29700"
         id="rect4274" /></clipPath></defs><defs
     class="TextShapeIndex"
     id="defs4276" /><defs
     class="EmbeddedBulletChars"
     id="defs4280" /><defs
     class="TextEmbeddedBitmaps"
     id="defs4309" /><g
     id="g4311"
     transform="translate(-141,-141)"><g
       id="id2"
       class="Master_Slide"><g
         id="bg-id2"
         class="Background" /><g
         id="bo-id2"
         class="BackgroundObjects" /></g></g><g
     class="SlideGroup"
     id="g4316"
     transform="translate(-141,-141)"><g
       id="g4318"><g
         id="id1"
         class="Slide"
         clip-path="url(#presentation_clip_path)"><g
           class="Page"
           id="g4321"><g
             class="com.sun.star.drawing.ClosedBezierShape"
             id="g4323"><g
               id="id3"><rect
                 class="BoundingBox"
                 x="1544"
                 y="1543"
                 width="17907"
                 height="17907"
                 id="rect4326"
                 style="fill:none;stroke:none" /><path
                 d="m 10500,1543 0,0 c -3,0 -5,0 -8,0 -1640,0 -3034,374 -4455,1194 -316,182 -574,352 -867,570 l -802,0 0,0 c -145,0 -268,33 -393,105 -125,73 -215,163 -287,288 -73,125 -106,248 -106,393 0,210 0,495 0,716 l 0,0 c -329,400 -579,761 -839,1210 -824,1428 -1199,2829 -1199,4477 0,1648 375,3049 1199,4476 825,1428 1850,2453 3277,3277 1428,824 2829,1200 4477,1200 1648,0 3049,-376 4476,-1200 1428,-824 2453,-1849 3277,-3277 824,-1427 1200,-2828 1200,-4476 0,-1648 -376,-3049 -1200,-4477 C 17426,4592 16401,3567 14973,2742 13547,1919 12147,1544 10500,1543 Z m 0,17492 0,0 C 8929,19035 7593,18677 6232,17891 4871,17105 3893,16127 3107,14766 2321,13405 1963,12070 1963,10498 1963,8926 2321,7590 3107,6229 3893,4868 4871,3890 6232,3105 7593,2319 8929,1961 10500,1961 c 1572,0 2908,358 4269,1144 1361,785 2339,1763 3124,3124 786,1361 1144,2697 1144,4269 0,1 0,1 0,2 l 0,0 c -1,1570 -360,2904 -1145,4264 -786,1363 -1765,2342 -3128,3128 -1359,785 -2694,1143 -4264,1145 l 0,-2 z"
                 id="path4328"
                 inkscape:connector-curvature="0"
                 style="fill:#000000;stroke:none" /></g></g><g
             class="com.sun.star.drawing.ClosedBezierShape"
             id="g4330"><g
               id="id4"><rect
                 class="BoundingBox"
                 x="141"
                 y="141"
                 width="20721"
                 height="20721"
                 id="rect4333"
                 style="fill:none;stroke:none" /><path
                 d="m 10501,141 0,0 C 8594,141 6973,575 5321,1529 3669,2483 2483,3669 1529,5321 575,6973 141,8594 141,10501 c 0,1907 434,3528 1388,5180 954,1651 2140,2838 3792,3792 1652,953 3273,1388 5180,1388 1907,0 3528,-435 5180,-1388 1651,-954 2838,-2141 3792,-3792 953,-1652 1388,-3273 1388,-5180 l 0,0 C 20858,8596 20424,6977 19471,5327 18516,3674 17328,2485 15674,1531 14025,578 12406,143 10501,141 Z m 0,20302 0,0 C 8671,20443 7116,20026 5531,19111 3946,18196 2808,17057 1893,15473 978,13888 561,12333 561,10503 561,8673 978,7118 1893,5533 2808,3948 3946,2810 5531,1895 7116,980 8671,563 10501,563 c 1830,0 3385,417 4970,1332 1584,915 2723,2053 3638,3638 914,1584 1331,3139 1332,4968 l 0,0 c -3,1828 -420,3381 -1334,4963 -916,1587 -2056,2727 -3643,3643 -1582,914 -3135,1331 -4963,1334 l 0,2 z"
                 id="path4335"
                 inkscape:connector-curvature="0"
                 style="fill:#000000;stroke:none" /></g></g><g
             class="com.sun.star.drawing.ClosedBezierShape"
             id="g4337"><g
               id="id5"><rect
                 class="BoundingBox"
                 x="4452"
                 y="6515"
                 width="12051"
                 height="9971"
                 id="rect4340"
                 style="fill:none;stroke:none" /><path
                 d="m 14965,9398 0,0 c -216,0 -399,37 -598,122 l 0,0 c -95,-373 -219,-677 -411,-1010 -367,-636 -824,-1093 -1461,-1460 -636,-368 -1260,-535 -1995,-535 -734,0 -1359,167 -1995,535 -636,367 -1093,824 -1460,1460 -195,338 -320,646 -415,1024 -211,-96 -408,-139 -641,-139 -283,0 -523,64 -768,206 -245,141 -422,317 -563,562 -142,245 -206,486 -206,769 0,283 64,523 206,769 141,245 318,421 563,562 245,142 485,206 768,206 283,0 524,-64 769,-206 46,-27 85,-51 128,-82 l 0,0 c 52,110 99,201 160,307 367,636 824,1093 1461,1460 210,122 398,209 626,293 -119,229 -172,449 -172,707 0,283 65,524 206,769 142,245 318,421 563,562 245,142 485,206 768,206 283,0 524,-64 769,-206 245,-141 421,-317 563,-562 141,-245 206,-486 206,-769 0,-258 -54,-478 -173,-707 230,-84 418,-171 629,-293 636,-368 1093,-825 1461,-1461 56,-98 101,-183 149,-285 l 0,0 c 32,21 60,39 94,58 245,142 486,206 769,206 283,0 523,-64 768,-206 245,-141 421,-317 563,-562 141,-246 206,-486 206,-769 0,-283 -65,-524 -206,-769 -142,-245 -318,-421 -563,-562 -245,-142 -485,-206 -768,-206 -1,0 -1,0 -2,0 l 2,6 z"
                 id="path4342"
                 inkscape:connector-curvature="0"
                 style="fill:#000000;stroke:none" /></g></g></g></g></g></g></svg>