<svg xmlns="http://www.w3.org/2000/svg" viewBox="0 0 100 100" x="0px" y="0px"><title>XLR - combo jack female</title><path d="M50,7.35a42.42,42.42,0,0,0-25.38,8.4H20.8a3.74,3.74,0,0,0-3.74,3.74c0,1,0,2.36,0,3.41A42.63,42.63,0,1,0,50,7.35Zm0,83.29A40.65,40.65,0,1,1,90.65,50,40.69,40.69,0,0,1,50,90.65Z"/><path d="M50,.67A49.33,49.33,0,1,0,99.33,50,49.39,49.39,0,0,0,50,.67Zm0,96.67A47.33,47.33,0,1,1,97.33,50,47.39,47.39,0,0,1,50,97.33Z"/><path d="M71.26,44.75a7.29,7.29,0,0,0-2.85.58,19,19,0,0,0-36.84.07A7.32,7.32,0,1,0,32.79,58a19,19,0,0,0,10.7,9.81,7.32,7.32,0,1,0,13,0,19,19,0,0,0,10.66-9.71,7.32,7.32,0,1,0,4.1-13.38Z"/></svg>
